<?xml version="1.0" encoding="utf-8"?>
<!-- Generator: Adobe Illustrator 16.0.0, SVG Export Plug-In . SVG Version: 6.00 Build 0)  -->
<!DOCTYPE svg PUBLIC "-//W3C//DTD SVG 1.1//EN" "http://www.w3.org/Graphics/SVG/1.1/DTD/svg11.dtd">
<svg version="1.1" id="Layer_1" xmlns="http://www.w3.org/2000/svg" xmlns:xlink="http://www.w3.org/1999/xlink" x="0px" y="0px"
	 width="24px" height="24px" viewBox="168.627 20.415 24 24" enable-background="new 168.627 20.415 24 24" xml:space="preserve">
<g>
	<path fill="#DC3545" d="M175.237,42.18c-1.096-1.244-2.19-2.539-2.888-4.084c-0.698-1.642-0.896-3.533-0.549-5.327
		c0.35-1.793,1.147-3.485,2.292-4.929c-0.1,1.244,0.347,2.539,1.193,3.484c-0.496-2.391,0.3-4.979,1.894-6.871
		c1.595-1.893,3.784-3.136,6.075-3.982c-1.146,1.194-1.294,3.086-0.846,4.68c0.446,1.593,1.394,2.987,2.239,4.432
		c0.847,1.444,1.644,2.939,1.694,4.58c0.445-0.847,0.945-1.691,1.244-2.639c0.298-0.945,0.447-1.941,0.199-2.888
		c0.896,1.096,1.395,2.191,1.643,3.586c0.248,1.394,0.199,2.838,0.05,4.232c-0.199,1.543-0.598,3.136-1.444,4.432
		c-0.995,1.544-2.589,2.638-4.331,3.236C180.616,44.67,177.578,44.222,175.237,42.18z"/>
	<path fill="#FFC107" d="M179.023,44.023c4.082,1.593,8.115-3.237,5.873-6.972c0-0.05-0.049-0.05-0.049-0.101
		c0.199,2.042-0.298,3.536-1.246,4.382c0.5-1.195,0.15-2.589-0.446-3.784c-0.599-1.146-1.445-2.191-2.092-3.285
		c-0.648-1.146-1.145-2.441-0.848-3.736c-1.192,0.897-2.042,2.241-2.389,3.686c-0.35,1.444-0.149,3.037,0.498,4.382
		c-0.747-0.547-1.296-1.444-1.344-2.391c-0.798,0.946-1.295,2.191-1.246,3.437C175.735,41.582,177.279,43.324,179.023,44.023z"/>
</g>
</svg>
