<?xml version="1.0" encoding="utf-8"?>
<!-- Generator: Adobe Illustrator 16.0.0, SVG Export Plug-In . SVG Version: 6.00 Build 0)  -->
<!DOCTYPE svg PUBLIC "-//W3C//DTD SVG 1.1//EN" "http://www.w3.org/Graphics/SVG/1.1/DTD/svg11.dtd">
<svg version="1.1" id="Layer_1" xmlns="http://www.w3.org/2000/svg" xmlns:xlink="http://www.w3.org/1999/xlink" x="0px" y="0px"
	 width="24px" height="24px" viewBox="234.252 111.018 24 24" enable-background="new 234.252 111.018 24 24" xml:space="preserve">
<g>
	<g id="check-circle-outline">
		<path fill="#28A745" d="M241.332,120.738l-1.68,1.68l5.4,5.401l12.001-12.001l-1.681-1.681l-10.32,10.32L241.332,120.738z
			 M255.854,123.019c0,5.28-4.321,9.602-9.602,9.602s-9.602-4.321-9.602-9.602s4.321-9.602,9.602-9.602
			c0.96,0,1.801,0.121,2.641,0.361l1.919-1.921c-1.439-0.48-3-0.84-4.56-0.84c-6.601,0-12.001,5.4-12.001,12.001
			s5.4,12.001,12.001,12.001s12.001-5.4,12.001-12.001H255.854z"/>
	</g>
</g>
</svg>
