<?xml version="1.0" encoding="utf-8"?>
<!-- Generator: Adobe Illustrator 16.0.0, SVG Export Plug-In . SVG Version: 6.00 Build 0)  -->
<!DOCTYPE svg PUBLIC "-//W3C//DTD SVG 1.1//EN" "http://www.w3.org/Graphics/SVG/1.1/DTD/svg11.dtd">
<svg version="1.1" id="Capa_1" xmlns="http://www.w3.org/2000/svg" xmlns:xlink="http://www.w3.org/1999/xlink" x="0px" y="0px"
	 width="1016.491px" height="1025.945px" viewBox="-11.241 15.651 1016.491 1025.945"
	 enable-background="new -11.241 15.651 1016.491 1025.945" xml:space="preserve">
<g>
	<g>
		<path d="M90.396,425.777l182.504-319.542l-40.163-13.577c-26.163-8.768-54.589,5.233-63.357,31.396L56.03,460.142L90.396,425.777z
			"/>
		<path d="M352.802,30.291c-3.111,3.111-5.797,6.648-8.06,10.608l-42.851,75.094L170.936,345.237l204.424-204.424l89.096-89.096
			l-51.478-29.416C392.967,10.776,368.358,14.735,352.802,30.291z"/>
		<path d="M526.044,39.625l-8.062,8.062l-10.96,10.96l-10.96,10.961l-83.65,83.65l-307.38,307.38l-40.305,40.305l-33.941,33.941
			l-6.293,6.293L3.422,562.248c-11.173,11.173-15.981,26.305-14.354,40.941c0.777,6.718,2.828,13.294,6.293,19.305
			c2.192,3.747,4.809,7.354,7.99,10.535l4.243,4.243l40.305,40.306l349.38,349.381c19.518,19.518,51.195,19.516,70.711-0.001
			l522.622-522.622c19.518-19.518,19.518-51.193-0.001-70.71l-98.641-98.642L682.173,544.782
			c-33.163,33.164-87.044,33.163-120.208-0.001l-32.385-32.385l-10.961-10.96l-10.96-10.96l-24.324-24.324
			c-16.263-16.264-24.536-37.546-24.819-58.9c-0.283-18.952,5.728-37.973,18.102-53.601c2.053-2.614,4.313-5.162,6.717-7.564
			l180.454-180.455l10.96-10.959l10.961-10.96l7.494-7.495l-96.52-96.521C577.238,20.108,545.561,20.11,526.044,39.625z"/>
		<path d="M751.824,145.197c-6.789,0.282-13.437,1.98-19.729,5.021c-4.809,2.405-9.334,5.516-13.364,9.546l-0.919,0.919
			l-0.707,0.707l-10.961,10.961l-39.527,39.527L507.943,370.552c-19.518,19.517-19.518,51.192,0,70.71l17.605,17.606l10.961,10.96
			l10.959,10.96l39.175,39.174c19.516,19.516,51.193,19.518,70.71,0l209.869-209.87l0.92-0.919c4.03-4.031,7.141-8.555,9.547-13.364
			c3.109-6.223,4.736-12.941,5.02-19.729c0.636-13.506-4.243-27.295-14.566-37.618l-78.699-78.7
			C779.117,149.438,765.328,144.558,751.824,145.197z M663.506,378.472c9.758,9.757,9.758,25.597,0,35.354l-11.738,11.738
			c-9.758,9.758-25.598,9.757-35.355,0l-11.738-11.737c-5.656-5.657-8.061-13.294-7.072-20.648
			c0.707-5.374,2.972-10.606,7.074-14.707l2.969-2.97l8.768-8.768c9.758-9.758,25.596-9.759,35.355,0L663.506,378.472
			L663.506,378.472z"/>
	</g>
</g>
</svg>
