<?xml version="1.0" encoding="utf-8"?>
<!-- Generator: Adobe Illustrator 16.0.0, SVG Export Plug-In . SVG Version: 6.00 Build 0)  -->
<!DOCTYPE svg PUBLIC "-//W3C//DTD SVG 1.1//EN" "http://www.w3.org/Graphics/SVG/1.1/DTD/svg11.dtd">
<svg version="1.1" id="Layer_1" xmlns="http://www.w3.org/2000/svg" xmlns:xlink="http://www.w3.org/1999/xlink" x="0px" y="0px"
	 width="16px" height="16px" viewBox="148.334 17.805 16 16" enable-background="new 148.334 17.805 16 16" xml:space="preserve">
<g>
	<path fill="#DC3545" d="M156.334,17.805c-4.418,0-8,3.582-8,8c0,4.419,3.582,8,8,8c4.419,0,8-3.581,8-8
		C164.334,21.387,160.753,17.805,156.334,17.805z M156.334,32.305c-3.59,0-6.5-2.909-6.5-6.5c0-3.589,2.91-6.5,6.5-6.5
		s6.5,2.911,6.5,6.5C162.834,29.396,159.924,32.305,156.334,32.305z M156.335,21.313c-0.573,0-1.007,0.299-1.007,0.782v4.43
		c0,0.484,0.434,0.781,1.007,0.781c0.559,0,1.006-0.31,1.006-0.781v-4.43C157.341,21.623,156.894,21.313,156.335,21.313z
		 M156.335,28.305c-0.551,0-0.999,0.448-0.999,1c0,0.55,0.448,0.997,0.999,0.997c0.55,0,0.997-0.447,0.997-0.997
		C157.332,28.753,156.885,28.305,156.335,28.305z"/>
</g>
</svg>
