<?xml version="1.0" encoding="utf-8"?>
<!-- Generator: Adobe Illustrator 16.0.0, SVG Export Plug-In . SVG Version: 6.00 Build 0)  -->
<!DOCTYPE svg PUBLIC "-//W3C//DTD SVG 1.1//EN" "http://www.w3.org/Graphics/SVG/1.1/DTD/svg11.dtd">
<svg version="1.1" id="Layer_1" xmlns="http://www.w3.org/2000/svg" xmlns:xlink="http://www.w3.org/1999/xlink" x="0px" y="0px"
	 width="24px" height="24px" viewBox="58.675 61.086 24 24" enable-background="new 58.675 61.086 24 24" xml:space="preserve">
<g>
	<path fill="#FFC107" d="M70.676,61.086c-6.628,0-12.001,5.373-12.001,12c0,6.628,5.373,12,12.001,12c6.628,0,12-5.371,12-12
		C82.676,66.459,77.303,61.086,70.676,61.086z M70.676,82.836c-5.386,0-9.751-4.365-9.751-9.75s4.365-9.75,9.751-9.75
		c5.384,0,9.75,4.365,9.75,9.75S76.061,82.836,70.676,82.836z M70.676,66.349c-0.858,0-1.51,0.448-1.51,1.173v6.646
		c0,0.725,0.651,1.172,1.51,1.172c0.839,0,1.51-0.466,1.51-1.172v-6.646C72.186,66.814,71.515,66.349,70.676,66.349z M70.676,76.836
		c-0.826,0-1.498,0.672-1.498,1.499c0,0.825,0.672,1.497,1.498,1.497s1.497-0.672,1.497-1.497
		C72.173,77.508,71.502,76.836,70.676,76.836z"/>
</g>
</svg>
