<?xml version="1.0" encoding="utf-8"?>
<!-- Generator: Adobe Illustrator 16.0.0, SVG Export Plug-In . SVG Version: 6.00 Build 0)  -->
<!DOCTYPE svg PUBLIC "-//W3C//DTD SVG 1.1//EN" "http://www.w3.org/Graphics/SVG/1.1/DTD/svg11.dtd">
<svg version="1.1" id="Layer_1" xmlns="http://www.w3.org/2000/svg" xmlns:xlink="http://www.w3.org/1999/xlink" x="0px" y="0px"
	 width="24px" height="24px" viewBox="104.765 61.086 24 24" enable-background="new 104.765 61.086 24 24" xml:space="preserve">
<g>
	<path fill="#DC3545" d="M118.889,73.077l2.121-2.121c0.293-0.294,0.293-0.768,0-1.061l-1.061-1.062
		c-0.293-0.292-0.767-0.293-1.061,0l-2.121,2.122l-2.121-2.12c-0.294-0.294-0.769-0.294-1.062-0.002l-1.061,1.062
		c-0.293,0.293-0.293,0.769,0.002,1.062l2.12,2.12l-2.117,2.117c-0.293,0.293-0.293,0.767,0,1.061l1.061,1.061
		c0.294,0.293,0.768,0.294,1.061,0l2.116-2.116l2.132,2.132c0.294,0.294,0.769,0.294,1.063,0.001l1.061-1.061
		c0.293-0.293,0.292-0.768-0.001-1.062L118.889,73.077z M116.764,61.086c-6.627,0-11.999,5.372-11.999,12s5.372,12,11.999,12
		c6.628,0,12.001-5.372,12.001-12C128.765,66.459,123.392,61.086,116.764,61.086z M116.764,82.836c-5.385,0-9.749-4.365-9.749-9.75
		c0-5.386,4.364-9.751,9.749-9.751c5.386,0,9.75,4.365,9.75,9.751C126.514,78.471,122.149,82.836,116.764,82.836z"/>
</g>
</svg>
