<?xml version="1.0" encoding="utf-8"?>
<!-- Generator: Adobe Illustrator 16.0.0, SVG Export Plug-In . SVG Version: 6.00 Build 0)  -->
<!DOCTYPE svg PUBLIC "-//W3C//DTD SVG 1.1//EN" "http://www.w3.org/Graphics/SVG/1.1/DTD/svg11.dtd">
<svg version="1.1" id="Layer_1" xmlns="http://www.w3.org/2000/svg" xmlns:xlink="http://www.w3.org/1999/xlink" x="0px" y="0px"
	 width="24px" height="24px" viewBox="234.252 59.352 24 24" enable-background="new 234.252 59.352 24 24" xml:space="preserve">
<g>
	<g>
		<g>
			<path fill="#DC3545" d="M248.156,76.433l-1.406-1.406c-0.275-0.274-0.721-0.274-0.995,0l-1.406,1.406
				c-0.441,0.44-0.13,1.2,0.497,1.2h2.813C248.282,77.633,248.598,76.874,248.156,76.433z"/>
		</g>
	</g>
	<g>
		<g>
			<path fill="#DC3545" d="M242.033,67.789c-1.938,0-3.515,1.577-3.515,3.515c0,1.938,1.576,3.518,3.515,3.518
				s3.516-1.579,3.516-3.518C245.549,69.366,243.972,67.789,242.033,67.789z M242.033,73.424c-1.162,0-2.119-0.955-2.119-2.12
				c0-1.162,0.957-2.118,2.119-2.118c1.163,0,2.119,0.956,2.119,2.118C244.152,72.469,243.196,73.424,242.033,73.424z"/>
		</g>
	</g>
	<g>
		<g>
			<path fill="#DC3545" d="M250.472,67.789c-1.938,0-3.518,1.577-3.518,3.515c0,1.938,1.579,3.518,3.518,3.518
				s3.515-1.579,3.515-3.518C253.986,69.366,252.41,67.789,250.472,67.789z M250.472,73.424c-1.164,0-2.119-0.955-2.119-2.12
				c0-1.162,0.955-2.118,2.119-2.118c1.162,0,2.117,0.956,2.117,2.118C252.589,72.469,251.634,73.424,250.472,73.424z"/>
		</g>
	</g>
	<g>
		<g>
			<path fill="#DC3545" d="M256.569,72.055c0.731-3.504-0.329-7.084-2.859-9.613l0,0c-1.992-1.992-4.641-3.09-7.458-3.09
				c-2.816,0-5.466,1.098-7.458,3.09c-2.525,2.524-3.596,6.101-2.86,9.613c-0.287,0.839-0.304,1.737-0.044,2.609
				c0.441,1.482,1.667,2.576,3.209,2.871c0.178,0.05,0.188,0.001,0.537,0.059c0.097,0.016,0.188,0.028,0.288,0.036v2.72
				c0,0.853,0.503,1.613,1.279,1.938c1.157,0.485,2.973,1.063,5.048,1.063h0.001h0.001c2.074,0,3.892-0.578,5.049-1.063
				c0.776-0.325,1.278-1.086,1.278-1.938v-2.724c0.098-0.007,0.188-0.019,0.284-0.033c0.371-0.058,0.386-0.004,0.573-0.068
				c1.543-0.309,2.76-1.411,3.188-2.897C256.874,73.767,256.854,72.882,256.569,72.055z M255.273,74.237
				c-0.286,0.995-1.117,1.73-2.171,1.921c-0.574,0.018-0.494,0.132-1.085,0.013c-0.437-0.089-0.843,0.244-0.843,0.688v3.49
				c0,0.284-0.164,0.535-0.416,0.642c-0.256,0.108-0.603,0.228-1,0.356v-1.521c0-0.389-0.306-0.694-0.694-0.694
				s-0.703,0.315-0.703,0.704v1.889c-0.44,0.09-0.922,0.148-1.415,0.185v-2.083c0-0.389-0.306-0.694-0.694-0.694
				c-0.388,0-0.703,0.315-0.703,0.704v2.083c-0.493-0.036-0.976-0.114-1.415-0.202v-1.891c0-0.389-0.305-0.694-0.693-0.694
				s-0.704,0.315-0.704,0.704v1.521c-0.396-0.129-0.734-0.258-0.99-0.366c-0.252-0.106-0.426-0.366-0.426-0.65v-3.489
				c0-0.444-0.396-0.77-0.832-0.681c-0.628,0.127-0.489,0.002-1.109-0.014c-1.031-0.191-1.85-0.915-2.141-1.894
				c-0.19-0.639-0.162-1.294,0.08-1.896c0.053-0.134,0.064-0.28,0.033-0.42c-0.726-3.158,0.241-6.317,2.438-8.513
				c1.727-1.727,4.021-2.687,6.463-2.687s4.737,0.96,6.464,2.687c2.236,2.236,3.147,5.418,2.438,8.513
				c-0.032,0.14-0.021,0.286,0.033,0.42C255.426,72.962,255.456,73.607,255.273,74.237z"/>
		</g>
	</g>
</g>
</svg>
