<?xml version="1.0" encoding="utf-8"?>
<!-- Generator: Adobe Illustrator 16.0.0, SVG Export Plug-In . SVG Version: 6.00 Build 0)  -->
<!DOCTYPE svg PUBLIC "-//W3C//DTD SVG 1.1//EN" "http://www.w3.org/Graphics/SVG/1.1/DTD/svg11.dtd">
<svg version="1.1" id="Layer_1" xmlns="http://www.w3.org/2000/svg" xmlns:xlink="http://www.w3.org/1999/xlink" x="0px" y="0px"
	 width="24px" height="18.229px" viewBox="109.25 18.185 24 18.229" enable-background="new 109.25 18.185 24 18.229"
	 xml:space="preserve">
<g>
	<path d="M116.765,24.747c0-0.563-0.457-1.02-1.019-1.02h-3.452c-0.563,0-1.019,0.457-1.019,1.02v1.17
		c0,0.562,0.456,1.018,1.019,1.018h3.452c0.562,0,1.019-0.456,1.019-1.018V24.747z M115.746,25.999h-3.452
		c-0.046,0-0.081-0.037-0.081-0.082v-1.17c0-0.045,0.035-0.082,0.08-0.082h3.453c0.046,0,0.082,0.036,0.082,0.082v1.17
		C115.828,25.962,115.792,25.999,115.746,25.999z"/>
	<path d="M115.746,28.731h-3.452c-0.563,0-1.019,0.456-1.019,1.018v1.171c0,0.562,0.456,1.019,1.019,1.019h3.452
		c0.562,0,1.019-0.457,1.019-1.019v-1.171C116.765,29.188,116.308,28.731,115.746,28.731z M112.213,29.749
		c0-0.045,0.035-0.082,0.081-0.082h3.452c0.046,0,0.082,0.037,0.082,0.082v1.171c0,0.045-0.036,0.082-0.082,0.082h-3.452
		c-0.046,0-0.081-0.037-0.081-0.082V29.749z"/>
	<path d="M118.668,27.899c0,2.793,2.271,5.064,5.063,5.064c2.793,0,5.064-2.271,5.064-5.064c0-2.792-2.271-5.064-5.064-5.064
		C120.939,22.835,118.668,25.107,118.668,27.899z M123.731,23.697v0.074c2.276,0,4.127,1.853,4.127,4.128s-1.851,4.128-4.128,4.128
		c-2.275,0-4.126-1.853-4.126-4.128s1.851-4.128,4.126-4.128L123.731,23.697L123.731,23.697z"/>
	<path d="M122.567,26.78c-0.002,0.003-0.005,0.005-0.007,0.008c-0.531-0.192-0.961-0.469-1.173-0.619
		c-0.197-0.139-0.454-0.17-0.679-0.081c-0.227,0.09-0.391,0.286-0.439,0.524c-0.232,1.146-0.153,1.869,0.24,2.213
		c0.385,0.334,1.064,0.412,2.102,0.237c0.003,0.002,0.006,0.005,0.008,0.007c-0.192,0.533-0.469,0.962-0.618,1.173
		c-0.142,0.2-0.172,0.454-0.082,0.68c0.09,0.227,0.285,0.391,0.524,0.439c0.427,0.087,0.8,0.131,1.11,0.131
		c0.524,0,0.887-0.121,1.104-0.371c0.333-0.383,0.411-1.071,0.237-2.103c0.003-0.003,0.005-0.005,0.008-0.008
		c0.531,0.192,0.961,0.469,1.172,0.619c0.196,0.139,0.453,0.17,0.68,0.081c0.226-0.089,0.39-0.285,0.438-0.524
		c0.232-1.146,0.154-1.869-0.24-2.212c-0.385-0.335-1.065-0.412-2.102-0.238c-0.002-0.002-0.005-0.005-0.008-0.007
		c0.193-0.532,0.469-0.962,0.619-1.173c0.141-0.199,0.171-0.452,0.082-0.679c-0.09-0.227-0.286-0.391-0.525-0.439
		c-1.154-0.235-1.868-0.157-2.214,0.24C122.473,25.062,122.395,25.749,122.567,26.78z M125.344,27.811l-0.022-0.196
		c0.179-0.021,0.342-0.031,0.486-0.031c0.309,0,0.476,0.049,0.522,0.09c0.029,0.037,0.109,0.316,0.003,1.004
		c-0.327-0.206-0.666-0.377-1.009-0.509c0.015-0.089,0.022-0.179,0.022-0.269C125.347,27.87,125.346,27.84,125.344,27.811z
		 M123.126,27.595l0.015-0.027c0.051-0.09,0.121-0.168,0.201-0.224l0.056-0.034l-0.039-0.064l0.063,0.052l0.054-0.025
		c0.017-0.007,0.033-0.013,0.064-0.022c0.016-0.005,0.031-0.009,0.048-0.012l-0.016-0.073l0.036,0.069
		c0.015-0.003,0.028-0.005,0.06-0.01c0.043-0.003,0.094-0.002,0.119-0.001l0.021,0.003c0.02,0.002,0.04,0.005,0.066,0.011
		c0.017,0.004,0.034,0.008,0.046,0.012l0.021,0.007c0.017,0.005,0.032,0.011,0.05,0.018l0.074,0.036
		c0.089,0.051,0.167,0.122,0.227,0.206l0.059,0.104l0.011,0.023c0.007,0.017,0.014,0.033,0.023,0.064
		c0.004,0.016,0.009,0.031,0.012,0.048l0.073-0.016l-0.069,0.036c0.003,0.014,0.005,0.028,0.007,0.043l0.002,0.019
		c0.002,0.021,0.003,0.042,0.003,0.063s-0.001,0.042-0.004,0.075c-0.003,0.021-0.006,0.041-0.011,0.066
		c-0.004,0.018-0.008,0.034-0.018,0.066c-0.006,0.017-0.012,0.032-0.019,0.05l-0.037,0.075c-0.049,0.088-0.121,0.166-0.205,0.224
		l-0.029,0.02c-0.007,0.004-0.013,0.009-0.022,0.013l-0.055,0.029l0.032,0.067l-0.056-0.058c-0.017,0.007-0.032,0.013-0.064,0.022
		c-0.016,0.005-0.032,0.009-0.048,0.013l0.016,0.073l-0.037-0.069c-0.014,0.003-0.027,0.005-0.042,0.007l-0.019,0.002
		c-0.04,0.003-0.07,0.005-0.137-0.001c-0.021-0.003-0.04-0.006-0.067-0.011c-0.017-0.004-0.034-0.009-0.064-0.018
		c-0.017-0.006-0.033-0.012-0.05-0.019l-0.028,0.069l0.003-0.08l-0.03,0.068l0.007-0.08l-0.028-0.015
		c-0.088-0.05-0.166-0.121-0.224-0.204l-0.019-0.028l-0.063,0.04l0.049-0.063l-0.038-0.079l0,0
		c-0.007-0.017-0.013-0.031-0.023-0.063c-0.004-0.017-0.008-0.033-0.012-0.048l-0.004-0.021c-0.003-0.014-0.005-0.028-0.009-0.062
		c-0.002-0.021-0.004-0.041-0.004-0.063c0-0.021,0.002-0.041,0.006-0.074c0.002-0.021,0.005-0.041,0.009-0.066
		c0.005-0.018,0.009-0.034,0.019-0.065c0.006-0.017,0.011-0.033,0.019-0.052l0.01-0.021l-0.067-0.032L123.126,27.595z
		 M123.73,29.515l0.027-0.001c0.024,0,0.05-0.001,0.073-0.003l0.019-0.001c0.022-0.002,0.044-0.004,0.065-0.006l-0.009-0.074
		l0.036,0.07l0.073-0.011c0.077,0.651-0.002,0.944-0.059,1.01c-0.019,0.015-0.133,0.057-0.396,0.057
		c-0.174,0-0.378-0.019-0.608-0.054c0.206-0.328,0.377-0.667,0.509-1.01C123.551,29.507,123.641,29.515,123.73,29.515z
		 M123.73,26.284l-0.025,0.001c-0.025,0-0.052,0.001-0.071,0.003l-0.022,0.002c-0.021,0.001-0.043,0.003-0.064,0.006l-0.025,0.003
		c-0.02,0.002-0.038,0.005-0.057,0.008l-0.019,0.004c-0.077-0.652,0.002-0.944,0.058-1.009c0.02-0.015,0.133-0.057,0.396-0.057
		c0.174,0,0.379,0.018,0.608,0.053c-0.206,0.327-0.377,0.666-0.51,1.01C123.91,26.292,123.82,26.284,123.73,26.284z M122.202,28.086
		L122.202,28.086L122.202,28.086L122.202,28.086z M122.118,27.986l0.023,0.198c-0.18,0.021-0.343,0.031-0.487,0.031
		c-0.308,0-0.475-0.049-0.521-0.089c-0.029-0.038-0.109-0.317-0.003-1.005c0.326,0.206,0.665,0.377,1.009,0.509
		c-0.016,0.09-0.023,0.18-0.023,0.269C122.115,27.929,122.117,27.956,122.118,27.986z"/>
	<path d="M130.634,28.675c-0.259,0-0.47,0.21-0.47,0.468v3.799c0,0.478-0.389,0.866-0.865,0.866l-18.201-0.005
		c-0.482,0-0.876-0.389-0.876-0.866l-0.008-10.058c0-0.483,0.389-0.876,0.865-0.876l18.213-0.011c0.478,0,0.866,0.388,0.866,0.865
		v4.188c0,0.258,0.211,0.468,0.469,0.468s0.469-0.21,0.469-0.468v-4.188c0-0.993-0.809-1.802-1.804-1.802l-18.213,0.002
		c-0.993,0-1.802,0.817-1.802,1.821v10.058c0,0.989,0.809,1.794,1.807,1.802v0.006l0.81-0.001v0.882
		c0,0.435,0.354,0.789,0.788,0.789h4.054c0.435,0,0.788-0.354,0.788-0.789v-0.882h1.225v0.882c0,0.435,0.354,0.789,0.788,0.789
		h7.882c0.435,0,0.788-0.354,0.788-0.789v-0.882h1.093c0.994,0,1.803-0.808,1.803-1.802v-3.799
		C131.102,28.885,130.892,28.675,130.634,28.675z M127.27,34.744v0.733h-0.656v-0.733H127.27z M125.677,34.744v0.733h-0.842v-0.733
		H125.677z M123.897,34.744v0.733h-0.843v-0.733H123.897z M122.118,34.744v0.733h-0.842v-0.733H122.118z M120.34,34.744v0.733
		h-0.655v-0.733H120.34z M116.588,34.744v0.733h-0.608v-0.733H116.588z M115.043,34.744v0.733h-0.668v-0.733H115.043z
		 M113.438,34.744v0.733h-0.608v-0.733H113.438z"/>
	<g>
		<path d="M112.337,21.433l-0.001-1.424c0-0.483,0.389-0.876,0.865-0.876l18.213-0.011c0.478,0,0.865,0.388,0.865,0.865v4.188
			c0,0.259,0.21,0.469,0.469,0.469c0.258,0,0.468-0.21,0.468-0.469v-4.188c0-0.994-0.808-1.803-1.802-1.803l-18.213,0.002
			c-0.994,0-1.803,0.818-1.803,1.822v1.424H112.337z"/>
		<path d="M132.755,25.805c-0.259,0-0.469,0.21-0.469,0.468v3.798c0,0.479-0.389,0.867-0.865,0.867h-0.493v0.936h0.493
			c0.993,0,1.802-0.809,1.802-1.803v-3.798C133.223,26.015,133.013,25.805,132.755,25.805z"/>
	</g>
</g>
</svg>
