<?xml version="1.0" encoding="utf-8"?>
<!-- Generator: Adobe Illustrator 16.0.0, SVG Export Plug-In . SVG Version: 6.00 Build 0)  -->
<!DOCTYPE svg PUBLIC "-//W3C//DTD SVG 1.1//EN" "http://www.w3.org/Graphics/SVG/1.1/DTD/svg11.dtd">
<svg version="1.1" id="Layer_1" xmlns="http://www.w3.org/2000/svg" xmlns:xlink="http://www.w3.org/1999/xlink" x="0px" y="0px"
	 width="24px" height="24px" viewBox="234.252 18.185 24 24" enable-background="new 234.252 18.185 24 24" xml:space="preserve">
<path d="M257.575,38.244c-0.13-0.129-0.306-0.202-0.489-0.202h-2.832l-0.001-11.816c0-2.13-0.834-4.137-2.351-5.652
	c-1.515-1.516-3.522-2.351-5.652-2.351c-4.412,0.001-8.003,3.592-8.003,8.003l0.001,11.817h-2.831c-0.382,0-0.692,0.31-0.692,0.691
	v2.759c0,0.183,0.073,0.358,0.202,0.489c0.13,0.129,0.307,0.202,0.49,0.202l21.669-0.002c0.382,0,0.692-0.309,0.692-0.691v-2.757
	C257.777,38.551,257.704,38.374,257.575,38.244z M239.63,26.226c0-3.649,2.97-6.619,6.62-6.619c1.761,0,3.421,0.69,4.675,1.944
	c1.255,1.255,1.944,2.914,1.944,4.675l0.002,11.816l-13.24,0.002L239.63,26.226z M242.114,27.695c0-0.6,0.485-1.085,1.085-1.085
	h1.967v-2.44c0-0.6,0.487-1.087,1.085-1.087c0.599,0,1.086,0.487,1.086,1.087v2.44h1.966c0.601,0,1.085,0.485,1.085,1.085
	c0,0.599-0.484,1.086-1.085,1.086h-1.966v5.333c0,0.601-0.487,1.087-1.086,1.087c-0.598,0-1.085-0.486-1.085-1.087v-5.333h-1.967
	C242.6,28.781,242.114,28.294,242.114,27.695z"/>
</svg>
